<svg width="21" height="17" viewBox="0 0 21 17" fill="none" xmlns="http://www.w3.org/2000/svg">
<path d="M4.49707 5.50781C4.28027 5.50781 4.08984 5.42578 3.92578 5.26172C3.76172 5.09766 3.67969 4.90723 3.67969 4.69043C3.67969 4.46777 3.76172 4.27441 3.92578 4.11035C4.08984 3.94629 4.28027 3.86426 4.49707 3.86426C4.72559 3.86426 4.91895 3.94629 5.07715 4.11035C5.23535 4.26855 5.31445 4.46191 5.31445 4.69043C5.31445 4.91309 5.23535 5.10645 5.07715 5.27051C4.91895 5.42871 4.72559 5.50781 4.49707 5.50781ZM4.49707 8.10938C4.28027 8.10938 4.08984 8.03027 3.92578 7.87207C3.76172 7.70801 3.67969 7.51465 3.67969 7.29199C3.67969 7.06934 3.76172 6.87891 3.92578 6.7207C4.08984 6.55664 4.28027 6.47461 4.49707 6.47461C4.72559 6.47461 4.91895 6.55371 5.07715 6.71191C5.23535 6.87012 5.31445 7.06348 5.31445 7.29199C5.31445 7.52051 5.23535 7.71387 5.07715 7.87207C4.91895 8.03027 4.72559 8.10938 4.49707 8.10938ZM4.49707 10.7021C4.27441 10.7021 4.08105 10.623 3.91699 10.4648C3.75879 10.3066 3.67969 10.1133 3.67969 9.88477C3.67969 9.66211 3.75879 9.47168 3.91699 9.31348C4.08105 9.15527 4.27441 9.07617 4.49707 9.07617C4.72559 9.07617 4.91895 9.15527 5.07715 9.31348C5.23535 9.47168 5.31445 9.66211 5.31445 9.88477C5.31445 10.1133 5.23535 10.3066 5.07715 10.4648C4.91895 10.623 4.72559 10.7021 4.49707 10.7021ZM4.49707 13.4443C4.28027 13.4443 4.08984 13.3623 3.92578 13.1982C3.76172 13.0342 3.67969 12.8408 3.67969 12.6182C3.67969 12.3955 3.76172 12.2021 3.92578 12.0381C4.08984 11.874 4.28027 11.792 4.49707 11.792C4.72559 11.792 4.91895 11.874 5.07715 12.0381C5.23535 12.1963 5.31445 12.3896 5.31445 12.6182C5.31445 12.8467 5.23535 13.043 5.07715 13.207C4.91895 13.3652 4.72559 13.4443 4.49707 13.4443ZM7.01074 5.25293C6.85254 5.25293 6.71777 5.19727 6.60645 5.08594C6.49512 4.97461 6.43945 4.84277 6.43945 4.69043C6.43945 4.53223 6.49512 4.39746 6.60645 4.28613C6.72363 4.16895 6.8584 4.11035 7.01074 4.11035H16.7754C16.9336 4.11035 17.0684 4.16895 17.1797 4.28613C17.2969 4.39746 17.3555 4.53223 17.3555 4.69043C17.3555 4.84277 17.2998 4.97461 17.1885 5.08594C17.0771 5.19727 16.9395 5.25293 16.7754 5.25293H7.01074ZM7.01074 7.86328C6.8584 7.86328 6.72363 7.80762 6.60645 7.69629C6.49512 7.58496 6.43945 7.4502 6.43945 7.29199C6.43945 7.13379 6.49512 6.99902 6.60645 6.8877C6.71777 6.77051 6.85254 6.71191 7.01074 6.71191H12.4775C12.6357 6.71191 12.7705 6.77051 12.8818 6.8877C12.9932 6.99902 13.0488 7.13379 13.0488 7.29199C13.0488 7.4502 12.9932 7.58496 12.8818 7.69629C12.7705 7.80762 12.6357 7.86328 12.4775 7.86328H7.01074ZM7.01074 10.4648C6.85254 10.4648 6.71777 10.4092 6.60645 10.2979C6.49512 10.1865 6.43945 10.0488 6.43945 9.88477C6.43945 9.73242 6.49512 9.60059 6.60645 9.48926C6.71777 9.37793 6.85254 9.32227 7.01074 9.32227H16.7754C16.9395 9.32227 17.0771 9.37793 17.1885 9.48926C17.2998 9.60059 17.3555 9.73242 17.3555 9.88477C17.3555 10.0488 17.2998 10.1865 17.1885 10.2979C17.0771 10.4092 16.9395 10.4648 16.7754 10.4648H7.01074ZM7.01074 13.1895C6.8584 13.1895 6.72363 13.1338 6.60645 13.0225C6.49512 12.9053 6.43945 12.7705 6.43945 12.6182C6.43945 12.46 6.49512 12.3252 6.60645 12.2139C6.71777 12.1025 6.85254 12.0469 7.01074 12.0469H12.4775C12.6357 12.0469 12.7705 12.1025 12.8818 12.2139C12.9932 12.3252 13.0488 12.46 13.0488 12.6182C13.0488 12.7705 12.9932 12.9053 12.8818 13.0225C12.7705 13.1338 12.6357 13.1895 12.4775 13.1895H7.01074ZM2.96777 16.8633C2.01855 16.8633 1.30078 16.623 0.814453 16.1426C0.328125 15.6621 0.0849609 14.9531 0.0849609 14.0156V3.31055C0.0849609 2.37305 0.328125 1.66406 0.814453 1.18359C1.30078 0.697266 2.01855 0.454102 2.96777 0.454102H18.0146C18.9697 0.454102 19.6904 0.697266 20.1768 1.18359C20.6631 1.66406 20.9062 2.37305 20.9062 3.31055V14.0156C20.9062 14.9531 20.6631 15.6621 20.1768 16.1426C19.6904 16.623 18.9697 16.8633 18.0146 16.8633H2.96777ZM3.07324 15.1406H17.918C18.3223 15.1406 18.6328 15.0352 18.8496 14.8242C19.0664 14.6074 19.1748 14.2881 19.1748 13.8662V3.45996C19.1748 3.03809 19.0664 2.72168 18.8496 2.51074C18.6328 2.29395 18.3223 2.18555 17.918 2.18555H3.07324C2.66309 2.18555 2.34961 2.29395 2.13281 2.51074C1.92188 2.72168 1.81641 3.03809 1.81641 3.45996V13.8662C1.81641 14.2881 1.92188 14.6074 2.13281 14.8242C2.34961 15.0352 2.66309 15.1406 3.07324 15.1406Z" fill="#4C90FF"/>
</svg>
