<svg width="21" height="20" viewBox="0 0 21 20" fill="none" xmlns="http://www.w3.org/2000/svg">
<path d="M9.6123 19.1904C9.24902 19.1904 8.93262 19.0879 8.66309 18.8828C8.39355 18.6777 8.2207 18.3994 8.14453 18.0479L7.78418 16.4922L7.54688 16.4131L6.20215 17.2393C5.89746 17.4326 5.5752 17.5059 5.23535 17.459C4.90137 17.418 4.60547 17.2686 4.34766 17.0107L3.11719 15.7891C2.85352 15.5254 2.70117 15.2266 2.66016 14.8926C2.61914 14.5586 2.69531 14.2393 2.88867 13.9346L3.73242 12.5898L3.65332 12.3701L2.09766 12.0098C1.75195 11.9277 1.47363 11.752 1.2627 11.4824C1.05762 11.2129 0.955078 10.8994 0.955078 10.542V8.81055C0.955078 8.45312 1.05762 8.14258 1.2627 7.87891C1.46777 7.60938 1.74609 7.43066 2.09766 7.34277L3.63574 6.97363L3.72363 6.73633L2.87988 5.3916C2.69238 5.09277 2.61621 4.77637 2.65137 4.44238C2.69238 4.1084 2.84473 3.80957 3.1084 3.5459L4.33887 2.31543C4.59668 2.06348 4.89258 1.91406 5.22656 1.86719C5.56055 1.82031 5.87988 1.89063 6.18457 2.07812L7.53809 2.91309L7.78418 2.81641L8.14453 1.26074C8.2207 0.915039 8.39355 0.639648 8.66309 0.43457C8.93262 0.223633 9.24902 0.118164 9.6123 0.118164H11.3965C11.7598 0.118164 12.0732 0.223633 12.3369 0.43457C12.6006 0.639648 12.7734 0.915039 12.8555 1.26074L13.2158 2.81641L13.4619 2.91309L14.8154 2.07812C15.1201 1.89063 15.4395 1.82031 15.7734 1.86719C16.1074 1.91406 16.4033 2.06348 16.6611 2.31543L17.8916 3.5459C18.1553 3.80957 18.3047 4.1084 18.3398 4.44238C18.3809 4.77637 18.3076 5.09277 18.1201 5.3916L17.2764 6.73633L17.373 6.97363L18.9023 7.34277C19.248 7.4248 19.5234 7.60059 19.7285 7.87012C19.9395 8.13965 20.0449 8.45312 20.0449 8.81055V10.542C20.0449 10.8994 19.9395 11.2129 19.7285 11.4824C19.5234 11.752 19.248 11.9277 18.9023 12.0098L17.3555 12.3701L17.2676 12.5898L18.1113 13.9346C18.2988 14.2393 18.3721 14.5586 18.3311 14.8926C18.2959 15.2266 18.1465 15.5254 17.8828 15.7891L16.6523 17.0107C16.3945 17.2686 16.0957 17.418 15.7559 17.459C15.4219 17.5059 15.1025 17.4326 14.7979 17.2393L13.4443 16.4131L13.2158 16.4922L12.8555 18.0479C12.7734 18.3994 12.6006 18.6777 12.3369 18.8828C12.0732 19.0879 11.7598 19.1904 11.3965 19.1904H9.6123ZM9.83203 17.5996H11.1768C11.3174 17.5996 11.3965 17.5322 11.4141 17.3975L11.9414 15.2354C12.2344 15.1709 12.5068 15.0859 12.7588 14.9805C13.0107 14.8691 13.2451 14.7461 13.4619 14.6113L15.3516 15.7715C15.4746 15.8535 15.583 15.8418 15.6768 15.7363L16.6084 14.7959C16.7021 14.7139 16.7109 14.6084 16.6348 14.4795L15.4746 12.5986C15.5977 12.3877 15.7119 12.1533 15.8174 11.8955C15.9287 11.6377 16.0166 11.3711 16.0811 11.0957L18.252 10.5771C18.3867 10.5537 18.4541 10.4717 18.4541 10.3311V9.0127C18.4541 8.87793 18.3867 8.7959 18.252 8.7666L16.0898 8.24805C16.0195 7.95508 15.9258 7.67676 15.8086 7.41309C15.6973 7.14941 15.5889 6.92383 15.4834 6.73633L16.6436 4.84668C16.7256 4.72363 16.7168 4.6123 16.6172 4.5127L15.6855 3.59863C15.5859 3.50488 15.4746 3.49023 15.3516 3.55469L13.4619 4.70605C13.2451 4.58301 13.0078 4.46875 12.75 4.36328C12.498 4.25195 12.2285 4.16113 11.9414 4.09082L11.4141 1.91113C11.3965 1.77637 11.3174 1.70898 11.1768 1.70898H9.83203C9.68555 1.70898 9.60059 1.77637 9.57715 1.91113L9.06738 4.07324C8.78613 4.14355 8.50781 4.2373 8.23242 4.35449C7.96289 4.46582 7.72852 4.58008 7.5293 4.69727L5.63965 3.55469C5.52246 3.49023 5.41406 3.50195 5.31445 3.58984L4.37402 4.5127C4.28027 4.6123 4.27148 4.72363 4.34766 4.84668L5.50781 6.73633C5.4082 6.92383 5.2998 7.14941 5.18262 7.41309C5.06543 7.67676 4.97461 7.95508 4.91016 8.24805L2.74805 8.7666C2.61328 8.7959 2.5459 8.87793 2.5459 9.0127V10.3311C2.5459 10.4717 2.61328 10.5537 2.74805 10.5771L4.91016 11.0869C4.98047 11.3682 5.07129 11.6377 5.18262 11.8955C5.29395 12.1475 5.4082 12.3818 5.52539 12.5986L4.35645 14.4883C4.28613 14.6113 4.29492 14.7168 4.38281 14.8047L5.32324 15.7363C5.41699 15.8418 5.52246 15.8564 5.63965 15.7803L7.53809 14.6113C7.75488 14.7461 7.99219 14.8691 8.25 14.9805C8.51367 15.0859 8.7832 15.1709 9.05859 15.2354L9.57715 17.3975C9.60059 17.5322 9.68555 17.5996 9.83203 17.5996ZM10.5 12.9854C9.88477 12.9854 9.32227 12.8359 8.8125 12.5371C8.30859 12.2383 7.90723 11.8369 7.6084 11.333C7.31543 10.8232 7.16895 10.2637 7.16895 9.6543C7.16895 9.03906 7.31543 8.47949 7.6084 7.97559C7.90723 7.47168 8.30859 7.07031 8.8125 6.77148C9.32227 6.47266 9.88477 6.32324 10.5 6.32324C11.1152 6.32324 11.6748 6.47266 12.1787 6.77148C12.6826 7.07031 13.084 7.47168 13.3828 7.97559C13.6816 8.47949 13.8311 9.03906 13.8311 9.6543C13.8311 10.2637 13.6816 10.8232 13.3828 11.333C13.084 11.8369 12.6826 12.2383 12.1787 12.5371C11.6748 12.8359 11.1152 12.9854 10.5 12.9854ZM10.5 11.4736C10.834 11.4736 11.1387 11.3916 11.4141 11.2275C11.6895 11.0635 11.9092 10.8438 12.0732 10.5684C12.2373 10.293 12.3193 9.98828 12.3193 9.6543C12.3193 9.31445 12.2373 9.00977 12.0732 8.74023C11.9092 8.46484 11.6895 8.24512 11.4141 8.08105C11.1387 7.91699 10.834 7.83496 10.5 7.83496C10.1602 7.83496 9.85254 7.91699 9.57715 8.08105C9.30762 8.24512 9.09082 8.46484 8.92676 8.74023C8.7627 9.00977 8.68066 9.31445 8.68066 9.6543C8.68066 9.98828 8.7627 10.293 8.92676 10.5684C9.09082 10.8438 9.30762 11.0635 9.57715 11.2275C9.85254 11.3916 10.1602 11.4736 10.5 11.4736Z" fill="#4C90FF"/>
</svg>
