<svg width="20" height="19" viewBox="0 0 20 19" fill="none" xmlns="http://www.w3.org/2000/svg">
<path d="M2.4502 5.88379L3.00391 4.65332C3.96484 5.83691 5.13379 6.75684 6.51074 7.41309C7.89355 8.06934 9.36133 8.39453 10.9141 8.38867C12.1211 8.38867 13.2783 8.18359 14.3857 7.77344C15.4932 7.35742 16.498 6.75977 17.4004 5.98047L17.9629 7.09668C16.9727 7.89355 15.874 8.50879 14.667 8.94238C13.46 9.37012 12.209 9.58398 10.9141 9.58398C9.83008 9.58398 8.77539 9.44043 7.75 9.15332C6.73047 8.86035 5.76953 8.43848 4.86719 7.8877C3.9707 7.33105 3.16504 6.66309 2.4502 5.88379ZM1.49219 10.876L1.7998 9.54004C2.89551 10.5713 4.1084 11.3916 5.43848 12.001C6.77441 12.6045 8.15723 12.9883 9.58691 13.1523C11.0166 13.3164 12.4404 13.252 13.8584 12.959C15.2822 12.666 16.6328 12.1445 17.9102 11.3945L17.9453 12.748C16.6211 13.4512 15.2383 13.9346 13.7969 14.1982C12.3555 14.4561 10.9082 14.5029 9.45508 14.3389C8.00195 14.1748 6.5957 13.8027 5.23633 13.2227C3.88281 12.6426 2.63477 11.8604 1.49219 10.876ZM5.86914 16.9229C5.62305 16.2197 5.43555 15.5078 5.30664 14.7871C5.18359 14.0664 5.11621 13.3398 5.10449 12.6074C5.04004 11.125 5.19531 9.67773 5.57031 8.26562C5.94531 6.85352 6.51367 5.5293 7.27539 4.29297C8.04297 3.05078 8.98047 1.94336 10.0879 0.970703L11.3447 1.47168C10.2256 2.36816 9.27637 3.4082 8.49707 4.5918C7.72363 5.76953 7.14648 7.03809 6.76562 8.39746C6.38477 9.75684 6.22949 11.1572 6.2998 12.5986C6.30566 13.4014 6.39355 14.1924 6.56348 14.9717C6.7334 15.7451 6.97363 16.501 7.28418 17.2393L5.86914 16.9229ZM11.7139 17.8018C10.8525 16.5654 10.1963 15.2324 9.74512 13.8027C9.29395 12.373 9.06836 10.8936 9.06836 9.36426C9.06836 7.95215 9.26465 6.57227 9.65723 5.22461C10.0557 3.87695 10.6328 2.61426 11.3887 1.43652L12.5576 1.84961C11.8076 2.95117 11.2363 4.14063 10.8438 5.41797C10.457 6.68945 10.2637 8.00488 10.2637 9.36426C10.2637 10.7998 10.4834 12.1943 10.9229 13.5479C11.3623 14.8955 11.998 16.1465 12.8301 17.3008L11.7139 17.8018ZM16.8379 14.5498C15.7715 13.917 14.8457 13.1289 14.0605 12.1855C13.2812 11.2422 12.6777 10.1963 12.25 9.04785C11.8281 7.89941 11.6113 6.69531 11.5996 5.43555C11.5938 4.75586 11.6494 4.09082 11.7666 3.44043C11.8838 2.78418 12.0625 2.14551 12.3027 1.52441L13.4541 1.84961C13.2256 2.41797 13.0557 3.00391 12.9443 3.60742C12.8389 4.21094 12.7891 4.81738 12.7949 5.42676C12.8066 6.5752 13.0088 7.6709 13.4014 8.71387C13.7998 9.75098 14.3594 10.6943 15.0801 11.5439C15.8008 12.3877 16.6562 13.0879 17.6465 13.6445L16.8379 14.5498ZM6.22949 9.4873C5.8252 9.4873 5.48242 9.34668 5.20117 9.06543C4.91992 8.77832 4.7793 8.43555 4.7793 8.03711C4.7793 7.63867 4.91992 7.29883 5.20117 7.01758C5.48242 6.73633 5.8252 6.5957 6.22949 6.5957C6.62207 6.5957 6.95898 6.73633 7.24023 7.01758C7.52148 7.29883 7.66211 7.63867 7.66211 8.03711C7.66211 8.43555 7.52148 8.77832 7.24023 9.06543C6.95898 9.34668 6.62207 9.4873 6.22949 9.4873ZM12.9795 10.2168C12.5752 10.2168 12.2324 10.0762 11.9512 9.79492C11.6758 9.50781 11.5381 9.16504 11.5381 8.7666C11.5381 8.37402 11.6758 8.04004 11.9512 7.76465C12.2324 7.4834 12.5752 7.34277 12.9795 7.34277C13.3721 7.34277 13.7061 7.4834 13.9814 7.76465C14.2627 8.04004 14.4033 8.37402 14.4033 8.7666C14.4033 9.16504 14.2627 9.50781 13.9814 9.79492C13.7061 10.0762 13.3721 10.2168 12.9795 10.2168ZM10.3516 15.2178C9.94141 15.2178 9.5957 15.0771 9.31445 14.7959C9.0332 14.5146 8.89258 14.1719 8.89258 13.7676C8.89258 13.3633 9.0332 13.0205 9.31445 12.7393C9.5957 12.458 9.94141 12.3174 10.3516 12.3174C10.75 12.3174 11.0898 12.458 11.3711 12.7393C11.6523 13.0205 11.793 13.3633 11.793 13.7676C11.793 14.1719 11.6523 14.5146 11.3711 14.7959C11.0898 15.0771 10.75 15.2178 10.3516 15.2178ZM9.99121 18.7334C8.7373 18.7334 7.5625 18.4961 6.4668 18.0215C5.37109 17.5527 4.40723 16.9023 3.5752 16.0703C2.74316 15.2441 2.08984 14.2832 1.61523 13.1875C1.14648 12.0859 0.912109 10.9082 0.912109 9.6543C0.912109 8.40039 1.14648 7.22559 1.61523 6.12988C2.08984 5.02832 2.74316 4.06152 3.5752 3.22949C4.40723 2.39746 5.37109 1.74707 6.4668 1.27832C7.5625 0.80957 8.7373 0.575195 9.99121 0.575195C11.2451 0.575195 12.4199 0.80957 13.5156 1.27832C14.6172 1.74707 15.584 2.39746 16.416 3.22949C17.248 4.06152 17.8984 5.02832 18.3672 6.12988C18.8418 7.22559 19.0791 8.40039 19.0791 9.6543C19.0791 10.9082 18.8418 12.0859 18.3672 13.1875C17.8984 14.2832 17.248 15.2441 16.416 16.0703C15.584 16.9023 14.6172 17.5527 13.5156 18.0215C12.4199 18.4961 11.2451 18.7334 9.99121 18.7334ZM9.99121 17.3271C11.0518 17.3271 12.0449 17.125 12.9707 16.7207C13.8965 16.3223 14.7109 15.7744 15.4141 15.0771C16.1172 14.374 16.668 13.5596 17.0664 12.6338C17.4648 11.708 17.6641 10.7148 17.6641 9.6543C17.6641 8.59375 17.4648 7.60059 17.0664 6.6748C16.668 5.74902 16.1172 4.93457 15.4141 4.23145C14.7109 3.52832 13.8965 2.97754 12.9707 2.5791C12.0449 2.18066 11.0518 1.98145 9.99121 1.98145C8.93652 1.98145 7.94629 2.18066 7.02051 2.5791C6.09473 2.97754 5.27734 3.52832 4.56836 4.23145C3.86523 4.93457 3.31445 5.74902 2.91602 6.6748C2.52344 7.60059 2.32715 8.59375 2.32715 9.6543C2.32715 10.7148 2.52344 11.708 2.91602 12.6338C3.31445 13.5596 3.86523 14.374 4.56836 15.0771C5.27734 15.7744 6.09473 16.3223 7.02051 16.7207C7.94629 17.125 8.93652 17.3271 9.99121 17.3271Z" fill="#4C90FF"/>
</svg>
